<svg 
 xmlns="http://www.w3.org/2000/svg"
 xmlns:xlink="http://www.w3.org/1999/xlink"
 width="15.487cm" height="9.313cm">
<path fill-rule="evenodd"  fill="rgb(52, 52, 52)"
 d="M436.842,66.687 L436.490,70.902 L436.478,70.902 C436.412,87.534 434.030,102.631 429.316,116.178 C424.603,129.710 417.339,142.606 407.546,154.883 L423.841,158.648 C422.671,164.039 421.030,170.719 418.922,178.690 C416.814,186.654 413.773,197.084 409.788,209.978 C402.059,237.639 397.492,252.526 396.087,254.634 C393.276,258.147 388.479,259.909 381.683,259.909 L378.521,258.855 L351.822,249.721 C330.040,242.925 310.839,239.533 294.206,239.533 C277.343,239.533 265.398,240.548 258.372,242.590 C255.331,243.490 246.664,249.265 232.375,259.909 L227.808,263.773 C225.936,263.773 224.180,262.834 222.538,260.963 C220.902,259.557 219.728,257.329 219.025,254.288 C219.025,244.550 228.395,236.085 247.130,228.905 C263.291,223.109 276.641,220.210 287.180,220.210 L329.689,220.210 C339.998,220.210 358.266,224.426 384.494,232.858 L404.430,158.677 C385.106,181.192 359.402,192.457 327.303,192.457 C278.537,192.457 254.159,171.850 254.159,130.626 C254.159,111.655 259.429,94.089 269.968,77.929 C281.913,60.363 297.250,51.580 315.990,51.580 C334.489,51.580 343.744,58.024 343.744,70.902 C343.744,71.613 343.676,72.294 343.630,72.985 C344.627,70.281 345.818,67.738 347.257,65.402 C353.108,56.191 361.425,51.580 372.200,51.580 C383.206,51.580 388.712,58.991 388.712,73.806 C388.712,99.743 372.431,112.709 339.879,112.709 C319.734,112.709 309.666,104.980 309.666,89.522 C309.666,87.183 312.180,83.961 317.220,79.861 C322.253,75.766 325.003,73.010 325.475,71.605 L316.693,70.902 C305.917,70.902 296.316,75.963 287.885,86.075 C279.453,96.191 275.238,106.895 275.238,118.187 C275.238,125.949 280.156,133.359 289.993,140.418 L299.478,146.413 C302.053,147.593 304.803,148.652 307.734,149.591 C310.660,150.535 313.410,151.002 315.990,151.002 L336.015,151.002 C361.309,151.002 381.213,145.150 395.738,133.436 C411.196,120.789 418.925,101.939 418.925,76.875 C418.925,63.997 415.060,51.580 407.331,39.635 C398.900,26.522 388.240,19.962 375.362,19.962 L341.987,19.962 C335.427,19.962 325.179,23.299 311.247,29.974 C297.310,36.649 289.521,42.446 287.885,47.364 L283.669,60.363 C281.561,64.579 277.927,66.687 272.778,66.687 C265.280,66.687 261.536,63.058 261.536,55.796 C261.536,43.851 272.191,31.440 293.506,18.557 C313.179,6.612 329.340,0.640 341.987,0.640 L376.416,0.640 C392.576,0.640 406.629,8.369 418.573,23.826 C427.708,35.771 434.382,51.229 438.598,70.200 L436.842,66.687 ZM358.850,90.576 C366.343,86.733 370.092,81.195 370.092,73.954 L370.092,70.902 C367.430,71.583 364.888,73.784 362.473,77.517 C360.058,81.250 358.850,84.812 358.850,88.199 L358.850,90.576 ZM340.231,94.089 C340.231,90.124 340.528,86.407 341.083,82.905 C339.100,87.007 336.028,90.629 331.799,93.738 L340.231,94.089 ZM153.688,188.241 C147.128,188.241 143.851,184.865 143.851,178.113 C143.851,177.957 143.887,177.813 143.896,177.660 C135.727,184.711 125.993,188.241 114.692,188.241 C105.322,188.241 97.005,182.505 89.749,171.027 C78.973,183.910 67.616,190.349 55.671,190.349 C51.456,190.349 44.836,186.424 35.822,178.580 C26.803,170.736 21.594,166.580 20.189,166.108 L16.676,168.567 L10.001,171.027 C3.677,171.027 0.515,167.859 0.515,161.514 C0.515,151.413 30.959,122.172 91.857,73.779 L91.857,60.390 C91.857,58.277 90.391,56.455 87.465,54.929 C84.534,53.402 80.845,52.288 76.399,51.580 L69.021,52.634 C65.272,64.348 61.874,72.077 58.833,75.821 C53.443,83.083 46.301,86.711 37.403,86.711 C33.418,86.711 29.553,85.306 25.810,82.496 C22.061,79.685 20.189,75.821 20.189,70.902 C20.189,69.266 21.588,65.984 24.388,61.066 C37.458,41.864 55.660,32.258 79.001,32.258 C87.169,32.258 93.992,34.777 99.476,39.811 C104.959,44.850 108.401,51.816 109.806,60.714 L134.810,47.364 L151.712,39.635 C165.094,34.717 180.821,32.258 198.897,32.258 C213.685,32.258 225.427,39.405 234.111,53.688 C241.390,66.335 245.029,80.388 245.029,95.846 C245.029,119.971 235.835,141.401 217.451,160.136 C199.062,178.876 177.807,188.241 153.688,188.241 ZM96.341,95.494 C69.674,115.168 48.744,133.321 33.539,149.948 C43.573,157.913 51.044,161.892 55.946,161.892 C60.612,161.892 66.568,159.318 73.802,154.163 L90.605,142.219 C93.405,142.219 96.210,144.387 99.009,148.718 C101.809,153.055 104.026,155.569 105.662,156.271 C112.743,156.271 119.824,153.110 126.906,146.786 C133.987,140.462 137.527,133.787 137.527,126.761 C137.527,120.673 132.011,115.755 120.983,112.006 C108.308,107.790 100.096,102.290 96.341,95.494 ZM193.693,84.153 C185.229,72.511 173.828,66.687 159.490,66.687 C144.438,66.687 128.454,72.308 111.530,83.550 C112.233,86.596 116.009,89.643 122.849,92.684 L137.708,97.953 C154.451,104.277 162.822,116.809 162.822,135.544 C162.822,147.988 159.233,159.052 152.070,168.742 C152.698,168.479 153.339,168.220 154.039,167.980 L170.199,166.234 C180.969,164.374 189.461,159.252 195.670,150.870 C201.872,142.488 204.979,132.821 204.979,121.876 C204.979,106.972 201.214,94.396 193.693,84.153 Z"/>
</svg>